<svg width="24" height="24" viewBox="0 0 24 24" fill="none" xmlns="http://www.w3.org/2000/svg">
<path d="M17.5 11.9999C18.9587 11.9999 20.3577 12.5794 21.3891 13.6109C22.4206 14.6423 23 16.0413 23 17.4999C23 18.9586 22.4206 20.3576 21.3891 21.389C20.3577 22.4205 18.9587 22.9999 17.5 22.9999C16.0414 22.9999 14.6424 22.4205 13.611 21.389C12.5795 20.3576 12 18.9586 12 17.4999C12 16.0413 12.5795 14.6423 13.611 13.6109C14.6424 12.5794 16.0414 11.9999 17.5 11.9999ZM12 1.99695C17.524 1.99695 22.002 6.47495 22.002 11.9989C22.002 12.2619 21.992 12.5229 21.972 12.7809C21.1172 11.9714 20.0585 11.4091 18.909 11.1541C17.7595 10.8992 16.5624 10.9612 15.4454 11.3335C14.3284 11.7057 13.3335 12.3743 12.5667 13.2678C11.8 14.1614 11.2903 15.2464 11.092 16.4069C10.0506 16.1939 9.11854 15.6181 8.46205 14.7819C8.40111 14.7045 8.32553 14.6399 8.23961 14.5917C8.15369 14.5435 8.05911 14.5127 7.96129 14.501C7.76372 14.4775 7.56489 14.5334 7.40855 14.6564C7.33113 14.7174 7.26648 14.793 7.21827 14.8789C7.17007 14.9648 7.13926 15.0594 7.12761 15.1572C7.10407 15.3548 7.15999 15.5536 7.28305 15.7099C8.20701 16.8863 9.53748 17.6746 11.013 17.9199C11.113 19.4839 11.768 20.8999 12.783 21.9699C12.525 21.9899 12.263 21.9999 12 21.9999C6.47605 21.9999 1.99805 17.5219 1.99805 11.9989C1.99805 6.47595 6.47605 1.99795 12 1.99795V1.99695ZM17.5 13.9969L17.41 14.0049C17.3101 14.0232 17.2182 14.0714 17.1464 14.1433C17.0745 14.2151 17.0263 14.307 17.008 14.4069L17 14.4969V16.9969L14.498 16.9999L14.408 17.0079C14.3081 17.0262 14.2162 17.0744 14.1444 17.1463C14.0725 17.2181 14.0243 17.31 14.006 17.4099L13.998 17.4999L14.006 17.5899C14.0243 17.6899 14.0725 17.7818 14.1444 17.8536C14.2162 17.9255 14.3081 17.9737 14.408 17.9919L14.498 17.9999H17V20.5039L17.008 20.5939C17.0265 20.6937 17.0748 20.7854 17.1466 20.857C17.2184 20.9287 17.3103 20.9768 17.41 20.9949L17.5 21.0039L17.59 20.9949C17.69 20.9767 17.7819 20.9285 17.8537 20.8566C17.9256 20.7848 17.9738 20.6929 17.992 20.5929L18 20.5029V17.9989L20.503 17.9999L20.593 17.9919C20.693 17.9737 20.7849 17.9255 20.8567 17.8536C20.9286 17.7818 20.9768 17.6899 20.995 17.5899L21.004 17.4999L20.996 17.4099C20.9777 17.3099 20.9293 17.2178 20.8573 17.146C20.7853 17.0742 20.6931 17.026 20.593 17.0079L20.503 16.9999H18V14.4999L17.992 14.4099C17.974 14.3099 17.9258 14.2177 17.854 14.1457C17.7822 14.0737 17.6901 14.0253 17.59 14.0069L17.5 13.9989V13.9969ZM9.00005 8.74995C8.83299 8.74522 8.66667 8.77404 8.51095 8.83471C8.35522 8.89538 8.21324 8.98666 8.0934 9.10315C7.97356 9.21965 7.8783 9.35899 7.81326 9.51294C7.74821 9.66689 7.71469 9.83232 7.71469 9.99945C7.71469 10.1666 7.74821 10.332 7.81326 10.486C7.8783 10.6399 7.97356 10.7792 8.0934 10.8957C8.21324 11.0122 8.35522 11.1035 8.51095 11.1642C8.66667 11.2249 8.83299 11.2537 9.00005 11.2489C9.32532 11.2397 9.63417 11.1041 9.86099 10.8707C10.0878 10.6374 10.2147 10.3248 10.2147 9.99945C10.2147 9.67405 10.0878 9.36148 9.86099 9.12815C9.63417 8.89483 9.32532 8.75915 9.00005 8.74995ZM15 8.74995C14.833 8.74522 14.6667 8.77404 14.5109 8.83471C14.3552 8.89538 14.2132 8.98666 14.0934 9.10315C13.9736 9.21965 13.8783 9.35899 13.8133 9.51294C13.7482 9.66689 13.7147 9.83232 13.7147 9.99945C13.7147 10.1666 13.7482 10.332 13.8133 10.486C13.8783 10.6399 13.9736 10.7792 14.0934 10.8957C14.2132 11.0122 14.3552 11.1035 14.5109 11.1642C14.6667 11.2249 14.833 11.2537 15 11.2489C15.3253 11.2397 15.6342 11.1041 15.861 10.8707C16.0878 10.6374 16.2147 10.3248 16.2147 9.99945C16.2147 9.67405 16.0878 9.36148 15.861 9.12815C15.6342 8.89483 15.3253 8.75915 15 8.74995Z" fill="#D9D9D9"/>
</svg>
