<svg width="24" height="24" viewBox="0 0 24 24" fill="none" xmlns="http://www.w3.org/2000/svg">
<path fill-rule="evenodd" clip-rule="evenodd" d="M8.6196 4.464C8.66172 3.94802 8.88049 3.46236 9.239 3.0889C9.59751 2.71544 10.0738 2.47703 10.5877 2.41388C11.1015 2.35073 11.6214 2.46669 12.0596 2.74222C12.4979 3.01775 12.8278 3.43598 12.9936 3.9264C13.3349 3.71894 13.7252 3.60606 14.1245 3.59932C14.5238 3.59259 14.9177 3.69226 15.2657 3.88809C15.6138 4.08392 15.9034 4.36886 16.1049 4.71364C16.3065 5.05843 16.4126 5.45064 16.4124 5.85V6.102C16.6052 6.03419 16.8081 5.9997 17.0124 6H17.4624C18.7044 6 19.7124 7.008 19.7124 8.25V13.722C19.7157 13.7479 19.7173 13.7739 19.7172 13.8C19.7172 16.3632 18.75 18.3288 17.2656 19.6488C15.792 20.958 13.8456 21.6 11.9172 21.6C8.0004 21.6 5.4444 18.9756 3.6096 15.9204C3.20611 15.3046 2.81484 14.6809 2.436 14.0496C1.0776 11.8104 2.7228 9.0036 5.3124 9V6.45C5.31243 6.06163 5.41298 5.67987 5.60428 5.34188C5.79558 5.00389 6.07111 4.72117 6.40406 4.52123C6.73702 4.32129 7.11605 4.21094 7.5043 4.20091C7.89254 4.19088 8.27677 4.28152 8.6196 4.464ZM8.6124 6.45C8.6124 6.17152 8.50178 5.90445 8.30486 5.70754C8.10795 5.51062 7.84088 5.4 7.5624 5.4C7.28392 5.4 7.01685 5.51062 6.81994 5.70754C6.62302 5.90445 6.5124 6.17152 6.5124 6.45V12C6.5124 12.1591 6.44919 12.3117 6.33666 12.4243C6.22414 12.5368 6.07153 12.6 5.9124 12.6C5.75327 12.6 5.60066 12.5368 5.48814 12.4243C5.37561 12.3117 5.3124 12.1591 5.3124 12V10.2C3.6288 10.2036 2.604 12.012 3.462 13.428C3.8904 14.136 4.2984 14.79 4.6164 15.2676L4.6236 15.2796L4.632 15.2916C6.396 18.2316 8.6388 20.4 11.916 20.4C13.5888 20.4 15.2412 19.842 16.4688 18.7512C17.67 17.6832 18.4968 16.0752 18.5172 13.8768C18.5139 13.8513 18.5123 13.8257 18.5124 13.8V8.25C18.5124 7.97152 18.4018 7.70445 18.2049 7.50754C18.0079 7.31062 17.7409 7.2 17.4624 7.2H17.0124C16.8533 7.2 16.7007 7.26321 16.5881 7.37573C16.4756 7.48826 16.4124 7.64087 16.4124 7.8V9C16.4124 9.15913 16.3492 9.31174 16.2367 9.42426C16.1241 9.53678 15.9715 9.6 15.8124 9.6C15.6533 9.6 15.5007 9.53678 15.3881 9.42426C15.2756 9.31174 15.2124 9.15913 15.2124 9V5.85C15.2124 5.57152 15.1018 5.30445 14.9049 5.10754C14.7079 4.91062 14.4409 4.8 14.1624 4.8C13.8839 4.8 13.6169 4.91062 13.4199 5.10754C13.223 5.30445 13.1124 5.57152 13.1124 5.85V8.4C13.1124 8.55913 13.0492 8.71174 12.9367 8.82426C12.8241 8.93678 12.6715 9 12.5124 9C12.3533 9 12.2007 8.93678 12.0881 8.82426C11.9756 8.71174 11.9124 8.55913 11.9124 8.4V4.65C11.9124 4.37152 11.8018 4.10445 11.6049 3.90754C11.4079 3.71062 11.1409 3.6 10.8624 3.6C10.5839 3.6 10.3169 3.71062 10.1199 3.90754C9.92303 4.10445 9.8124 4.37152 9.8124 4.65V9C9.8124 9.15913 9.74919 9.31174 9.63666 9.42426C9.52414 9.53678 9.37153 9.6 9.2124 9.6C9.05327 9.6 8.90066 9.53678 8.78814 9.42426C8.67561 9.31174 8.6124 9.15913 8.6124 9V6.45Z" fill="rgba(148, 150, 152, 1)"/>
</svg>
