<svg width="16" height="17" viewBox="0 0 16 17" fill="none" xmlns="http://www.w3.org/2000/svg">
<path d="M5.66634 13.1668H5.33301C2.66634 13.1668 1.33301 12.5002 1.33301 9.16683V5.8335C1.33301 3.16683 2.66634 1.8335 5.33301 1.8335H10.6663C13.333 1.8335 14.6663 3.16683 14.6663 5.8335V9.16683C14.6663 11.8335 13.333 13.1668 10.6663 13.1668H10.333C10.1263 13.1668 9.92634 13.2668 9.79967 13.4335L8.79967 14.7668C8.35967 15.3535 7.63967 15.3535 7.19967 14.7668L6.19967 13.4335C6.09301 13.2868 5.84634 13.1668 5.66634 13.1668Z" stroke="#292D32" stroke-opacity="0.5" stroke-miterlimit="10" stroke-linecap="round" stroke-linejoin="round"/>
<path d="M4.66699 5.8335H11.3337" stroke="#292D32" stroke-opacity="0.5" stroke-linecap="round" stroke-linejoin="round"/>
<path d="M4.66699 9.1665H8.66699" stroke="#292D32" stroke-opacity="0.5" stroke-linecap="round" stroke-linejoin="round"/>
</svg>
