<svg width="101" height="101" viewBox="0 0 101 101" fill="none" xmlns="http://www.w3.org/2000/svg">
<path d="M87.875 4.66602H75.625C72 4.66602 69.3333 6.16602 68.125 8.83268C67.4583 10.041 67.1667 11.4577 67.1667 13.1243V25.3743C67.1667 30.666 70.3333 33.8327 75.625 33.8327H87.875C89.5417 33.8327 90.9583 33.541 92.1667 32.8743C94.8333 31.666 96.3333 28.9993 96.3333 25.3743V13.1243C96.3333 7.83268 93.1667 4.66602 87.875 4.66602ZM91.7917 21.041C91.375 21.4577 90.75 21.7493 90.0833 21.791H84.2083V23.916L84.25 27.5827C84.2083 28.291 83.9583 28.8743 83.4583 29.3743C83.0417 29.791 82.4167 30.0827 81.75 30.0827C80.375 30.0827 79.25 28.9577 79.25 27.5827V21.7493L73.4167 21.791C72.0417 21.791 70.9167 20.6243 70.9167 19.2493C70.9167 17.8743 72.0417 16.7493 73.4167 16.7493L77.0833 16.791H79.25V10.9577C79.25 9.58268 80.375 8.41602 81.75 8.41602C83.125 8.41602 84.25 9.58268 84.25 10.9577L84.2083 13.916V16.7493H90.0833C91.4583 16.7493 92.5833 17.8743 92.5833 19.2493C92.5417 19.9577 92.25 20.541 91.7917 21.041Z" fill="#d0d5dd"/>
<path d="M38 43.7493C43.4768 43.7493 47.9167 39.3095 47.9167 33.8327C47.9167 28.3559 43.4768 23.916 38 23.916C32.5232 23.916 28.0833 28.3559 28.0833 33.8327C28.0833 39.3095 32.5232 43.7493 38 43.7493Z" fill="#d0d5dd"/>
<path d="M87.875 33.834H85.9167V53.0423L85.375 52.584C82.125 49.7923 76.875 49.7923 73.625 52.584L56.2917 67.459C53.0417 70.2506 47.7917 70.2506 44.5417 67.459L43.125 66.2923C40.1667 63.709 35.4583 63.459 32.125 65.709L16.5417 76.1673C15.625 73.834 15.0833 71.1257 15.0833 67.959V33.0423C15.0833 21.2923 21.2917 15.084 33.0417 15.084H67.1667V13.1257C67.1667 11.459 67.4583 10.0423 68.125 8.83398H33.0417C17.875 8.83398 8.83334 17.8757 8.83334 33.0423V67.959C8.83334 72.5007 9.62501 76.459 11.1667 79.7923C14.75 87.709 22.4167 92.1673 33.0417 92.1673H67.9583C83.125 92.1673 92.1667 83.1256 92.1667 67.959V32.8757C90.9583 33.5423 89.5417 33.834 87.875 33.834Z" fill="#d0d5dd"/>
</svg>
