<svg width="542" height="488" viewBox="0 0 542 488" fill="none" xmlns="http://www.w3.org/2000/svg">
<g clip-path="url(#clip0_130_3140)">
<rect width="542" height="488" fill="#F9FBFC"/>
<circle cx="256" cy="256" r="129.5" stroke="#0163DA" stroke-opacity="0.1"/>
<circle cx="256" cy="256" r="178.5" stroke="#0163DA" stroke-opacity="0.1"/>
<circle cx="256" cy="256" r="222.5" stroke="#0163DA" stroke-opacity="0.1"/>
<circle cx="256" cy="256" r="269.5" stroke="#0163DA" stroke-opacity="0.1"/>
<circle cx="256" cy="256" r="304.5" stroke="#0163DA" stroke-opacity="0.1"/>
<g filter="url(#filter0_d_130_3140)">
<rect x="106" y="208" width="300" height="96" rx="24" fill="white" shape-rendering="crispEdges"/>
<g clip-path="url(#clip1_130_3140)">
<path fill-rule="evenodd" clip-rule="evenodd" d="M155.556 247.685C153.911 246.587 151.978 246 150 246V236C153.956 236 157.822 237.173 161.111 239.371C164.4 241.568 166.964 244.692 168.478 248.346C169.991 252.001 170.387 256.022 169.616 259.902C168.844 263.781 166.939 267.345 164.142 270.142C161.345 272.939 157.781 274.844 153.902 275.616C150.022 276.387 146.001 275.991 142.346 274.478C138.692 272.964 135.568 270.4 133.371 267.111C131.173 263.822 130 259.956 130 256H140C140 257.978 140.587 259.911 141.685 261.556C142.784 263.2 144.346 264.482 146.173 265.239C148 265.996 150.011 266.194 151.951 265.808C153.891 265.422 155.673 264.47 157.071 263.071C158.47 261.673 159.422 259.891 159.808 257.951C160.194 256.011 159.996 254 159.239 252.173C158.482 250.346 157.2 248.784 155.556 247.685Z" fill="#292D32"/>
<path fill-rule="evenodd" clip-rule="evenodd" d="M140 236C140 237.313 139.741 238.614 139.239 239.827C138.736 241.04 138 242.142 137.071 243.071C136.142 244 135.04 244.736 133.827 245.239C132.614 245.741 131.313 246 130 246L130 256C132.626 256 135.227 255.483 137.654 254.478C140.08 253.473 142.285 251.999 144.142 250.142C145.999 248.285 147.472 246.08 148.478 243.654C149.483 241.227 150 238.626 150 236L140 236Z" fill="#292D32"/>
</g>
<path d="M184.869 271V241.909H203.506V246.327H190.139V254.224H202.227V258.642H190.139V271H184.869ZM216.137 271.426C213.95 271.426 212.06 270.972 210.469 270.062C208.888 269.144 207.671 267.847 206.819 266.17C205.967 264.485 205.54 262.501 205.54 260.219C205.54 257.974 205.967 256.005 206.819 254.31C207.681 252.605 208.883 251.279 210.427 250.332C211.97 249.376 213.784 248.898 215.867 248.898C217.212 248.898 218.481 249.116 219.674 249.551C220.877 249.977 221.937 250.64 222.856 251.54C223.784 252.439 224.513 253.585 225.043 254.977C225.574 256.36 225.839 258.008 225.839 259.92V261.497H207.955V258.031H220.91C220.9 257.046 220.687 256.17 220.271 255.403C219.854 254.627 219.272 254.016 218.523 253.571C217.785 253.126 216.923 252.903 215.938 252.903C214.887 252.903 213.964 253.159 213.168 253.67C212.373 254.172 211.753 254.835 211.308 255.659C210.872 256.473 210.649 257.368 210.64 258.344V261.369C210.64 262.638 210.872 263.727 211.336 264.636C211.8 265.536 212.449 266.227 213.282 266.71C214.115 267.184 215.091 267.42 216.208 267.42C216.956 267.42 217.633 267.316 218.239 267.108C218.845 266.89 219.371 266.573 219.816 266.156C220.261 265.74 220.597 265.223 220.825 264.608L225.626 265.148C225.323 266.417 224.745 267.525 223.893 268.472C223.05 269.409 221.97 270.138 220.654 270.659C219.338 271.17 217.832 271.426 216.137 271.426ZM239.848 271.426C237.661 271.426 235.771 270.972 234.18 270.062C232.599 269.144 231.382 267.847 230.53 266.17C229.678 264.485 229.251 262.501 229.251 260.219C229.251 257.974 229.678 256.005 230.53 254.31C231.392 252.605 232.594 251.279 234.138 250.332C235.681 249.376 237.495 248.898 239.578 248.898C240.923 248.898 242.192 249.116 243.385 249.551C244.588 249.977 245.648 250.64 246.567 251.54C247.495 252.439 248.224 253.585 248.754 254.977C249.285 256.36 249.55 258.008 249.55 259.92V261.497H231.666V258.031H244.621C244.611 257.046 244.398 256.17 243.982 255.403C243.565 254.627 242.982 254.016 242.234 253.571C241.496 253.126 240.634 252.903 239.649 252.903C238.598 252.903 237.675 253.159 236.879 253.67C236.084 254.172 235.464 254.835 235.018 255.659C234.583 256.473 234.36 257.368 234.351 258.344V261.369C234.351 262.638 234.583 263.727 235.047 264.636C235.511 265.536 236.16 266.227 236.993 266.71C237.826 267.184 238.802 267.42 239.919 267.42C240.667 267.42 241.344 267.316 241.95 267.108C242.556 266.89 243.082 266.573 243.527 266.156C243.972 265.74 244.308 265.223 244.536 264.608L249.337 265.148C249.034 266.417 248.456 267.525 247.604 268.472C246.761 269.409 245.681 270.138 244.365 270.659C243.049 271.17 241.543 271.426 239.848 271.426ZM261.996 271.384C260.282 271.384 258.748 270.943 257.394 270.062C256.04 269.182 254.97 267.903 254.184 266.227C253.398 264.551 253.005 262.515 253.005 260.119C253.005 257.695 253.403 255.65 254.198 253.983C255.003 252.307 256.087 251.043 257.451 250.19C258.815 249.329 260.335 248.898 262.011 248.898C263.289 248.898 264.34 249.116 265.164 249.551C265.988 249.977 266.641 250.493 267.124 251.099C267.607 251.696 267.981 252.259 268.246 252.79H268.46V241.909H273.616V271H268.559V267.562H268.246C267.981 268.093 267.598 268.656 267.096 269.253C266.594 269.84 265.931 270.342 265.107 270.759C264.283 271.175 263.246 271.384 261.996 271.384ZM263.431 267.165C264.52 267.165 265.448 266.871 266.215 266.284C266.982 265.687 267.565 264.859 267.962 263.798C268.36 262.738 268.559 261.502 268.559 260.091C268.559 258.68 268.36 257.454 267.962 256.412C267.574 255.37 266.996 254.561 266.229 253.983C265.472 253.405 264.539 253.116 263.431 253.116C262.285 253.116 261.329 253.415 260.562 254.011C259.795 254.608 259.217 255.432 258.829 256.483C258.441 257.534 258.246 258.737 258.246 260.091C258.246 261.455 258.441 262.671 258.829 263.741C259.227 264.802 259.809 265.64 260.576 266.256C261.353 266.862 262.304 267.165 263.431 267.165ZM279.322 271V241.909H290.459C292.561 241.909 294.308 242.241 295.7 242.903C297.102 243.557 298.148 244.452 298.839 245.588C299.54 246.724 299.891 248.012 299.891 249.452C299.891 250.635 299.663 251.649 299.209 252.491C298.754 253.325 298.143 254.002 297.376 254.523C296.609 255.044 295.752 255.418 294.805 255.645V255.929C295.838 255.986 296.827 256.303 297.774 256.881C298.731 257.449 299.512 258.254 300.118 259.295C300.724 260.337 301.027 261.597 301.027 263.074C301.027 264.58 300.662 265.934 299.933 267.136C299.204 268.33 298.106 269.272 296.638 269.963C295.17 270.654 293.323 271 291.098 271H279.322ZM284.592 266.597H290.26C292.173 266.597 293.551 266.232 294.393 265.503C295.246 264.764 295.672 263.817 295.672 262.662C295.672 261.8 295.459 261.024 295.033 260.332C294.607 259.632 294 259.082 293.214 258.685C292.429 258.277 291.491 258.074 290.402 258.074H284.592V266.597ZM284.592 254.281H289.805C290.714 254.281 291.534 254.116 292.263 253.784C292.992 253.443 293.565 252.965 293.982 252.349C294.408 251.724 294.621 250.986 294.621 250.134C294.621 249.007 294.223 248.079 293.428 247.349C292.642 246.62 291.472 246.256 289.919 246.256H284.592V254.281ZM315.043 271.426C312.856 271.426 310.967 270.972 309.376 270.062C307.794 269.144 306.577 267.847 305.725 266.17C304.873 264.485 304.447 262.501 304.447 260.219C304.447 257.974 304.873 256.005 305.725 254.31C306.587 252.605 307.79 251.279 309.333 250.332C310.877 249.376 312.69 248.898 314.773 248.898C316.118 248.898 317.387 249.116 318.58 249.551C319.783 249.977 320.844 250.64 321.762 251.54C322.69 252.439 323.419 253.585 323.95 254.977C324.48 256.36 324.745 258.008 324.745 259.92V261.497H306.862V258.031H319.816C319.807 257.046 319.594 256.17 319.177 255.403C318.76 254.627 318.178 254.016 317.43 253.571C316.691 253.126 315.829 252.903 314.844 252.903C313.793 252.903 312.87 253.159 312.075 253.67C311.279 254.172 310.659 254.835 310.214 255.659C309.778 256.473 309.556 257.368 309.546 258.344V261.369C309.546 262.638 309.778 263.727 310.242 264.636C310.706 265.536 311.355 266.227 312.188 266.71C313.022 267.184 313.997 267.42 315.114 267.42C315.862 267.42 316.54 267.316 317.146 267.108C317.752 266.89 318.277 266.573 318.722 266.156C319.167 265.74 319.504 265.223 319.731 264.608L324.532 265.148C324.229 266.417 323.651 267.525 322.799 268.472C321.956 269.409 320.877 270.138 319.56 270.659C318.244 271.17 316.738 271.426 315.043 271.426ZM329.095 271V249.182H334.081V252.818H334.308C334.706 251.559 335.388 250.588 336.354 249.906C337.329 249.215 338.442 248.869 339.692 248.869C339.976 248.869 340.293 248.884 340.643 248.912C341.003 248.931 341.302 248.964 341.538 249.011V253.741C341.321 253.666 340.975 253.599 340.501 253.543C340.037 253.476 339.588 253.443 339.152 253.443C338.214 253.443 337.372 253.647 336.624 254.054C335.885 254.452 335.303 255.006 334.876 255.716C334.45 256.426 334.237 257.245 334.237 258.173V271H329.095ZM344.955 271V249.182H349.94V252.818H350.168C350.565 251.559 351.247 250.588 352.213 249.906C353.188 249.215 354.301 248.869 355.551 248.869C355.835 248.869 356.152 248.884 356.503 248.912C356.863 248.931 357.161 248.964 357.398 249.011V253.741C357.18 253.666 356.834 253.599 356.361 253.543C355.897 253.476 355.447 253.443 355.011 253.443C354.074 253.443 353.231 253.647 352.483 254.054C351.744 254.452 351.162 255.006 350.736 255.716C350.31 256.426 350.097 257.245 350.097 258.173V271H344.955ZM364.674 279.182C363.973 279.182 363.325 279.125 362.728 279.011C362.141 278.907 361.672 278.784 361.322 278.642L362.515 274.636C363.263 274.854 363.931 274.958 364.518 274.949C365.105 274.939 365.621 274.755 366.066 274.395C366.521 274.045 366.904 273.457 367.217 272.634L367.657 271.455L359.745 249.182H365.2L370.228 265.659H370.455L375.498 249.182H380.967L372.231 273.642C371.824 274.797 371.284 275.787 370.612 276.611C369.939 277.444 369.115 278.079 368.14 278.514C367.174 278.959 366.019 279.182 364.674 279.182Z" fill="#292D32"/>
</g>
</g>
<defs>
<filter id="filter0_d_130_3140" x="70" y="186" width="380" height="176" filterUnits="userSpaceOnUse" color-interpolation-filters="sRGB">
<feFlood flood-opacity="0" result="BackgroundImageFix"/>
<feColorMatrix in="SourceAlpha" type="matrix" values="0 0 0 0 0 0 0 0 0 0 0 0 0 0 0 0 0 0 127 0" result="hardAlpha"/>
<feOffset dx="4" dy="18"/>
<feGaussianBlur stdDeviation="20"/>
<feComposite in2="hardAlpha" operator="out"/>
<feColorMatrix type="matrix" values="0 0 0 0 0 0 0 0 0 0 0 0 0 0 0 0 0 0 0.05 0"/>
<feBlend mode="normal" in2="BackgroundImageFix" result="effect1_dropShadow_130_3140"/>
<feBlend mode="normal" in="SourceGraphic" in2="effect1_dropShadow_130_3140" result="shape"/>
</filter>
<clipPath id="clip0_130_3140">
<rect width="542" height="488" rx="24" fill="white"/>
</clipPath>
<clipPath id="clip1_130_3140">
<rect width="40" height="40" fill="white" transform="translate(130 236)"/>
</clipPath>
</defs>
</svg>
