<svg width="208" height="32" viewBox="0 0 208 32" fill="none" xmlns="http://www.w3.org/2000/svg">
<g clip-path="url(#clip0_11_832)">
<path fill-rule="evenodd" clip-rule="evenodd" d="M20.4446 9.34824C19.129 8.4692 17.5822 8 16 8V0C19.1645 0 22.2579 0.938384 24.8891 2.69649C27.5203 4.45458 29.571 6.95345 30.7821 9.87704C31.993 12.8006 32.3099 16.0178 31.6926 19.1214C31.0752 22.2251 29.5514 25.0761 27.3137 27.3137C25.0761 29.5514 22.2251 31.0752 19.1214 31.6926C16.0178 32.3099 12.8006 31.993 9.87704 30.7821C6.95345 29.571 4.45458 27.5203 2.69649 24.8891C0.938384 22.2579 0 19.1645 0 16H8C8 17.5822 8.4692 19.129 9.34824 20.4446C10.2273 21.7602 11.4767 22.7855 12.9386 23.391C14.4003 23.9966 16.0089 24.155 17.5607 23.8462C19.1126 23.5376 20.538 22.7757 21.6569 21.6569C22.7757 20.538 23.5376 19.1126 23.8462 17.5607C24.155 16.0089 23.9966 14.4003 23.391 12.9386C22.7855 11.4767 21.7602 10.2273 20.4446 9.34824Z" fill="white"/>
<path fill-rule="evenodd" clip-rule="evenodd" d="M8 3.465e-06C8 1.05058 7.79308 2.09087 7.39104 3.06147C6.989 4.03207 6.39972 4.91399 5.65685 5.65686C4.91399 6.39973 4.03208 6.989 3.06147 7.39104C2.09086 7.79308 1.05057 8 3.49688e-07 8L0 16C2.10115 16 4.18172 15.5862 6.12294 14.7821C8.06416 13.978 9.828 12.7994 11.3137 11.3137C12.7994 9.828 13.978 8.06416 14.7821 6.12294C15.5862 4.18172 16 2.10115 16 0L8 3.465e-06Z" fill="white"/>
</g>
<path d="M45.7216 24.5V7.04545H56.9034V9.69602H48.8835V14.4347H56.1364V17.0852H48.8835V24.5H45.7216ZM64.4822 24.7557C63.1697 24.7557 62.0362 24.483 61.0817 23.9375C60.1328 23.3864 59.4027 22.608 58.8913 21.6023C58.38 20.5909 58.1243 19.4006 58.1243 18.0312C58.1243 16.6847 58.38 15.5028 58.8913 14.4858C59.4084 13.4631 60.13 12.6676 61.0561 12.0994C61.9822 11.5256 63.0703 11.2386 64.3203 11.2386C65.1271 11.2386 65.8885 11.3693 66.6044 11.6307C67.326 11.8864 67.9624 12.2841 68.5135 12.8239C69.0703 13.3636 69.5078 14.0511 69.826 14.8864C70.1442 15.7159 70.3033 16.7045 70.3033 17.8523V18.7983H59.5732V16.7188H67.3459C67.3402 16.1278 67.2124 15.6023 66.9624 15.142C66.7124 14.6761 66.3629 14.3097 65.9141 14.0426C65.4709 13.7756 64.9538 13.642 64.3629 13.642C63.7322 13.642 63.1783 13.7955 62.701 14.1023C62.2237 14.4034 61.8516 14.8011 61.5845 15.2955C61.3232 15.7841 61.1896 16.321 61.1839 16.9062V18.7216C61.1839 19.483 61.3232 20.1364 61.6016 20.6818C61.88 21.2216 62.2692 21.6364 62.7692 21.9261C63.2692 22.2102 63.8544 22.3523 64.5249 22.3523C64.9737 22.3523 65.38 22.2898 65.7436 22.1648C66.1072 22.0341 66.4226 21.8438 66.6896 21.5938C66.9567 21.3438 67.1584 21.0341 67.2947 20.6648L70.1754 20.9886C69.9936 21.75 69.647 22.4148 69.1357 22.983C68.63 23.5455 67.9822 23.983 67.1925 24.2955C66.4027 24.6023 65.4993 24.7557 64.4822 24.7557ZM78.7088 24.7557C77.3963 24.7557 76.2628 24.483 75.3082 23.9375C74.3594 23.3864 73.6293 22.608 73.1179 21.6023C72.6065 20.5909 72.3509 19.4006 72.3509 18.0312C72.3509 16.6847 72.6065 15.5028 73.1179 14.4858C73.6349 13.4631 74.3565 12.6676 75.2827 12.0994C76.2088 11.5256 77.2969 11.2386 78.5469 11.2386C79.3537 11.2386 80.1151 11.3693 80.831 11.6307C81.5526 11.8864 82.1889 12.2841 82.7401 12.8239C83.2969 13.3636 83.7344 14.0511 84.0526 14.8864C84.3707 15.7159 84.5298 16.7045 84.5298 17.8523V18.7983H73.7997V16.7188H81.5724C81.5668 16.1278 81.4389 15.6023 81.1889 15.142C80.9389 14.6761 80.5895 14.3097 80.1406 14.0426C79.6974 13.7756 79.1804 13.642 78.5895 13.642C77.9588 13.642 77.4048 13.7955 76.9276 14.1023C76.4503 14.4034 76.0781 14.8011 75.8111 15.2955C75.5497 15.7841 75.4162 16.321 75.4105 16.9062V18.7216C75.4105 19.483 75.5497 20.1364 75.8281 20.6818C76.1065 21.2216 76.4957 21.6364 76.9957 21.9261C77.4957 22.2102 78.081 22.3523 78.7514 22.3523C79.2003 22.3523 79.6065 22.2898 79.9702 22.1648C80.3338 22.0341 80.6491 21.8438 80.9162 21.5938C81.1832 21.3438 81.3849 21.0341 81.5213 20.6648L84.402 20.9886C84.2202 21.75 83.8736 22.4148 83.3622 22.983C82.8565 23.5455 82.2088 23.983 81.419 24.2955C80.6293 24.6023 79.7259 24.7557 78.7088 24.7557ZM91.9979 24.7301C90.9695 24.7301 90.049 24.4659 89.2365 23.9375C88.424 23.4091 87.782 22.642 87.3104 21.6364C86.8388 20.6307 86.603 19.4091 86.603 17.9716C86.603 16.517 86.8416 15.2898 87.3189 14.2898C87.8018 13.2841 88.4524 12.5256 89.2706 12.0142C90.0888 11.4972 91.0007 11.2386 92.0064 11.2386C92.7734 11.2386 93.4041 11.3693 93.8984 11.6307C94.3928 11.8864 94.7848 12.196 95.0746 12.5597C95.3643 12.9176 95.5888 13.2557 95.7479 13.5739H95.8757V7.04545H98.9695V24.5H95.9354V22.4375H95.7479C95.5888 22.7557 95.3587 23.0937 95.0575 23.4517C94.7564 23.804 94.3587 24.1051 93.8643 24.3551C93.37 24.6051 92.7479 24.7301 91.9979 24.7301ZM92.8587 22.1989C93.5121 22.1989 94.0689 22.0227 94.5291 21.6705C94.9893 21.3125 95.3388 20.8153 95.5774 20.179C95.8161 19.5426 95.9354 18.8011 95.9354 17.9545C95.9354 17.108 95.8161 16.3722 95.5774 15.7472C95.3445 15.1222 94.9979 14.6364 94.5376 14.2898C94.0831 13.9432 93.5234 13.7699 92.8587 13.7699C92.1712 13.7699 91.5973 13.9489 91.1371 14.3068C90.6768 14.6648 90.3303 15.1591 90.0973 15.7898C89.8643 16.4205 89.7479 17.142 89.7479 17.9545C89.7479 18.7727 89.8643 19.5028 90.0973 20.1449C90.3359 20.7812 90.6854 21.2841 91.1456 21.6534C91.6115 22.017 92.1825 22.1989 92.8587 22.1989ZM102.393 24.5V7.04545H109.075C110.337 7.04545 111.385 7.24432 112.22 7.64204C113.061 8.03409 113.689 8.57102 114.104 9.25284C114.524 9.93466 114.734 10.7074 114.734 11.571C114.734 12.2812 114.598 12.8892 114.325 13.3949C114.053 13.8949 113.686 14.3011 113.226 14.6136C112.766 14.9261 112.251 15.1506 111.683 15.2869V15.4574C112.303 15.4915 112.896 15.6818 113.464 16.0284C114.038 16.3693 114.507 16.8523 114.871 17.4773C115.234 18.1023 115.416 18.858 115.416 19.7443C115.416 20.6477 115.197 21.4602 114.76 22.1818C114.322 22.8977 113.663 23.4631 112.783 23.8778C111.902 24.2926 110.794 24.5 109.459 24.5H102.393ZM105.555 21.858H108.956C110.104 21.858 110.93 21.6392 111.436 21.2017C111.947 20.7585 112.203 20.1903 112.203 19.4972C112.203 18.9801 112.075 18.5142 111.82 18.0994C111.564 17.679 111.2 17.3494 110.729 17.1108C110.257 16.8665 109.695 16.7443 109.041 16.7443H105.555V21.858ZM105.555 14.4688H108.683C109.229 14.4688 109.72 14.3693 110.158 14.1705C110.595 13.9659 110.939 13.679 111.189 13.3097C111.445 12.9347 111.572 12.4915 111.572 11.9801C111.572 11.304 111.334 10.7472 110.857 10.3097C110.385 9.87216 109.683 9.65341 108.751 9.65341H105.555V14.4688ZM123.826 24.7557C122.513 24.7557 121.38 24.483 120.425 23.9375C119.477 23.3864 118.746 22.608 118.235 21.6023C117.724 20.5909 117.468 19.4006 117.468 18.0312C117.468 16.6847 117.724 15.5028 118.235 14.4858C118.752 13.4631 119.474 12.6676 120.4 12.0994C121.326 11.5256 122.414 11.2386 123.664 11.2386C124.471 11.2386 125.232 11.3693 125.948 11.6307C126.67 11.8864 127.306 12.2841 127.857 12.8239C128.414 13.3636 128.852 14.0511 129.17 14.8864C129.488 15.7159 129.647 16.7045 129.647 17.8523V18.7983H118.917V16.7188H126.69C126.684 16.1278 126.556 15.6023 126.306 15.142C126.056 14.6761 125.707 14.3097 125.258 14.0426C124.815 13.7756 124.298 13.642 123.707 13.642C123.076 13.642 122.522 13.7955 122.045 14.1023C121.567 14.4034 121.195 14.8011 120.928 15.2955C120.667 15.7841 120.533 16.321 120.528 16.9062V18.7216C120.528 19.483 120.667 20.1364 120.945 20.6818C121.224 21.2216 121.613 21.6364 122.113 21.9261C122.613 22.2102 123.198 22.3523 123.869 22.3523C124.317 22.3523 124.724 22.2898 125.087 22.1648C125.451 22.0341 125.766 21.8438 126.033 21.5938C126.3 21.3438 126.502 21.0341 126.638 20.6648L129.519 20.9886C129.337 21.75 128.991 22.4148 128.479 22.983C127.974 23.5455 127.326 23.983 126.536 24.2955C125.746 24.6023 124.843 24.7557 123.826 24.7557ZM132.257 24.5V11.4091H135.249V13.5909H135.385C135.624 12.8352 136.033 12.2528 136.612 11.8438C137.197 11.429 137.865 11.2216 138.615 11.2216C138.786 11.2216 138.976 11.2301 139.186 11.2472C139.402 11.2585 139.581 11.2784 139.723 11.3068V14.1449C139.592 14.0994 139.385 14.0597 139.101 14.0256C138.822 13.9858 138.553 13.9659 138.291 13.9659C137.729 13.9659 137.223 14.0881 136.774 14.3324C136.331 14.571 135.982 14.9034 135.726 15.3295C135.47 15.7557 135.342 16.2472 135.342 16.804V24.5H132.257ZM141.773 24.5V11.4091H144.764V13.5909H144.901C145.139 12.8352 145.548 12.2528 146.128 11.8438C146.713 11.429 147.381 11.2216 148.131 11.2216C148.301 11.2216 148.491 11.2301 148.702 11.2472C148.918 11.2585 149.097 11.2784 149.239 11.3068V14.1449C149.108 14.0994 148.901 14.0597 148.616 14.0256C148.338 13.9858 148.068 13.9659 147.807 13.9659C147.244 13.9659 146.739 14.0881 146.29 14.3324C145.847 14.571 145.497 14.9034 145.241 15.3295C144.986 15.7557 144.858 16.2472 144.858 16.804V24.5H141.773ZM153.604 29.4091C153.184 29.4091 152.795 29.375 152.437 29.3068C152.085 29.2443 151.803 29.1705 151.593 29.0852L152.309 26.6818C152.758 26.8125 153.158 26.875 153.511 26.8693C153.863 26.8636 154.173 26.7528 154.44 26.5369C154.712 26.3267 154.942 25.9744 155.13 25.4801L155.394 24.7727L150.647 11.4091H153.92L156.937 21.2955H157.073L160.099 11.4091H163.38L158.138 26.0852C157.894 26.7784 157.57 27.3722 157.167 27.8665C156.763 28.3665 156.269 28.7472 155.684 29.0085C155.104 29.2756 154.411 29.4091 153.604 29.4091Z" fill="white"/>
<rect x="176" width="32" height="32" rx="12" fill="#FEF0C7"/>
<path fill-rule="evenodd" clip-rule="evenodd" d="M190 11C190.108 11 190.214 11.0354 190.301 11.1009C190.387 11.1663 190.45 11.2582 190.48 11.3627L191.022 13.26C191.139 13.6686 191.358 14.0407 191.658 14.3412C191.959 14.6417 192.331 14.8606 192.74 14.9773L194.637 15.5193C194.741 15.5492 194.833 15.6123 194.899 15.699C194.964 15.7858 194.999 15.8914 194.999 16C194.999 16.1086 194.964 16.2142 194.899 16.301C194.833 16.3877 194.741 16.4508 194.637 16.4807L192.74 17.0227C192.331 17.1394 191.959 17.3583 191.658 17.6588C191.358 17.9593 191.139 18.3314 191.022 18.74L190.48 20.6373C190.45 20.7417 190.387 20.8336 190.301 20.8989C190.214 20.9643 190.108 20.9996 190 20.9996C189.891 20.9996 189.785 20.9643 189.699 20.8989C189.612 20.8336 189.549 20.7417 189.519 20.6373L188.977 18.74C188.86 18.3314 188.641 17.9593 188.341 17.6588C188.04 17.3583 187.668 17.1394 187.26 17.0227L185.362 16.4807C185.258 16.4508 185.166 16.3877 185.101 16.301C185.035 16.2142 185 16.1086 185 16C185 15.8914 185.035 15.7858 185.101 15.699C185.166 15.6123 185.258 15.5492 185.362 15.5193L187.26 14.9773C187.668 14.8606 188.04 14.6417 188.341 14.3412C188.641 14.0407 188.86 13.6686 188.977 13.26L189.519 11.3627C189.549 11.2582 189.612 11.1663 189.699 11.1009C189.785 11.0354 189.891 11 190 11ZM196 9C196.111 8.99994 196.22 9.03718 196.307 9.10579C196.395 9.17441 196.458 9.27046 196.485 9.37867L196.657 10.0693C196.734 10.3769 196.893 10.6577 197.118 10.882C197.342 11.1062 197.623 11.2654 197.93 11.3427L198.621 11.5147C198.729 11.5415 198.826 11.6039 198.895 11.6919C198.963 11.7798 199.001 11.8883 199.001 12C199.001 12.1117 198.963 12.2202 198.895 12.3081C198.826 12.3961 198.729 12.4585 198.621 12.4853L197.93 12.6573C197.623 12.7346 197.342 12.8938 197.118 13.118C196.893 13.3423 196.734 13.6231 196.657 13.9307L196.485 14.6213C196.458 14.7298 196.396 14.8261 196.308 14.8949C196.22 14.9637 196.111 15.0011 196 15.0011C195.888 15.0011 195.779 14.9637 195.692 14.8949C195.604 14.8261 195.541 14.7298 195.514 14.6213L195.342 13.9307C195.265 13.623 195.106 13.3419 194.882 13.1176C194.658 12.8934 194.377 12.7343 194.069 12.6573L193.378 12.4853C193.27 12.4585 193.174 12.3961 193.105 12.3081C193.036 12.2202 192.999 12.1117 192.999 12C192.999 11.8883 193.036 11.7798 193.105 11.6919C193.174 11.6039 193.27 11.5415 193.378 11.5147L194.069 11.3427C194.377 11.2657 194.658 11.1066 194.882 10.8823C195.106 10.6581 195.265 10.377 195.342 10.0693L195.514 9.37867C195.541 9.27046 195.604 9.17441 195.692 9.10579C195.78 9.03718 195.888 8.99994 196 9ZM195 18C195.105 17.9999 195.207 18.0329 195.292 18.0943C195.377 18.1557 195.441 18.2424 195.474 18.342L195.737 19.1307C195.837 19.4287 196.07 19.6633 196.369 19.7627L197.158 20.026C197.257 20.0593 197.343 20.123 197.404 20.2081C197.466 20.2931 197.499 20.3952 197.499 20.5C197.499 20.6048 197.466 20.7069 197.404 20.7919C197.343 20.877 197.257 20.9407 197.158 20.974L196.369 21.2373C196.222 21.2864 196.088 21.3691 195.978 21.4788C195.869 21.5885 195.786 21.7222 195.737 21.8693L195.474 22.658C195.44 22.7573 195.377 22.8436 195.292 22.9048C195.207 22.966 195.104 22.9989 195 22.9989C194.895 22.9989 194.793 22.966 194.708 22.9048C194.623 22.8436 194.559 22.7573 194.526 22.658L194.262 21.8693C194.213 21.7222 194.131 21.5885 194.021 21.4788C193.911 21.3691 193.777 21.2864 193.63 21.2373L192.842 20.974C192.742 20.9407 192.656 20.877 192.595 20.7919C192.534 20.7069 192.501 20.6048 192.501 20.5C192.501 20.3952 192.534 20.2931 192.595 20.2081C192.656 20.123 192.742 20.0593 192.842 20.026L193.63 19.7627C193.777 19.7136 193.911 19.6309 194.021 19.5212C194.131 19.4115 194.213 19.2778 194.262 19.1307L194.526 18.342C194.559 18.2425 194.622 18.1559 194.707 18.0945C194.793 18.0331 194.895 18.0001 195 18Z" fill="#F79009"/>
<defs>
<clipPath id="clip0_11_832">
<rect width="32" height="32" fill="white"/>
</clipPath>
</defs>
</svg>
