<svg width="24" height="25" viewBox="0 0 24 25" fill="none" xmlns="http://www.w3.org/2000/svg">
<path d="M21.66 10.9405L20.68 15.1205C19.84 18.7305 18.18 20.1905 15.06 19.8905C14.56 19.8505 14.02 19.7605 13.44 19.6205L11.76 19.2205C7.59 18.2305 6.3 16.1705 7.28 11.9905L8.26 7.8005C8.46 6.9505 8.7 6.2105 9 5.6005C10.17 3.1805 12.16 2.5305 15.5 3.3205L17.17 3.7105C21.36 4.6905 22.64 6.7605 21.66 10.9405Z" stroke="#98A2B3" stroke-width="1.5" stroke-linecap="round" stroke-linejoin="round"/>
<path d="M15.06 19.8896C14.44 20.3096 13.66 20.6596 12.71 20.9696L11.13 21.4896C7.15998 22.7696 5.06997 21.6996 3.77997 17.7296L2.49997 13.7796C1.21997 9.80961 2.27997 7.70961 6.24997 6.42961L7.82997 5.90961C8.23997 5.77961 8.62997 5.66961 8.99997 5.59961C8.69997 6.20961 8.45997 6.94961 8.25997 7.79961L7.27997 11.9896C6.29997 16.1696 7.58998 18.2296 11.76 19.2196L13.44 19.6196C14.02 19.7596 14.56 19.8496 15.06 19.8896Z" stroke="#98A2B3" stroke-width="1.5" stroke-linecap="round" stroke-linejoin="round"/>
</svg>
