<svg width="32" height="32" viewBox="0 0 32 32" fill="none" xmlns="http://www.w3.org/2000/svg">
<path fill-rule="evenodd" clip-rule="evenodd" d="M12 6C12.2173 6.00004 12.4287 6.07086 12.6021 6.20173C12.7756 6.3326 12.9017 6.51641 12.9613 6.72533L14.0453 10.52C14.2787 11.3372 14.7166 12.0815 15.3176 12.6824C15.9185 13.2834 16.6628 13.7213 17.48 13.9547L21.2747 15.0387C21.4835 15.0985 21.6671 15.2246 21.7978 15.3981C21.9286 15.5715 21.9993 15.7828 21.9993 16C21.9993 16.2172 21.9286 16.4285 21.7978 16.6019C21.6671 16.7754 21.4835 16.9015 21.2747 16.9613L17.48 18.0453C16.6628 18.2787 15.9185 18.7166 15.3176 19.3176C14.7166 19.9185 14.2787 20.6628 14.0453 21.48L12.9613 25.2747C12.9015 25.4835 12.7754 25.6671 12.6019 25.7978C12.4285 25.9286 12.2172 25.9993 12 25.9993C11.7828 25.9993 11.5715 25.9286 11.3981 25.7978C11.2247 25.6671 11.0985 25.4835 11.0387 25.2747L9.95468 21.48C9.72128 20.6628 9.28342 19.9185 8.68245 19.3176C8.08148 18.7166 7.33724 18.2787 6.52001 18.0453L2.72535 16.9613C2.51655 16.9015 2.33291 16.7754 2.20218 16.6019C2.07144 16.4285 2.00073 16.2172 2.00073 16C2.00073 15.7828 2.07144 15.5715 2.20218 15.3981C2.33291 15.2246 2.51655 15.0985 2.72535 15.0387L6.52001 13.9547C7.33724 13.7213 8.08148 13.2834 8.68245 12.6824C9.28342 12.0815 9.72128 11.3372 9.95468 10.52L11.0387 6.72533C11.0984 6.51641 11.2245 6.3326 11.3979 6.20173C11.5714 6.07086 11.7827 6.00004 12 6ZM24 2C24.2231 1.99988 24.4398 2.07435 24.6157 2.21158C24.7916 2.34881 24.9165 2.54091 24.9707 2.75733L25.3147 4.13867C25.4692 4.75377 25.7876 5.31546 26.2361 5.76392C26.6846 6.21238 27.2462 6.53082 27.8613 6.68533L29.2427 7.02933C29.4595 7.08304 29.6521 7.20781 29.7898 7.38373C29.9275 7.55966 30.0023 7.77661 30.0023 8C30.0023 8.22339 29.9275 8.44034 29.7898 8.61627C29.6521 8.79219 29.4595 8.91696 29.2427 8.97067L27.8613 9.31467C27.2462 9.46918 26.6846 9.78762 26.2361 10.2361C25.7876 10.6845 25.4692 11.2462 25.3147 11.8613L24.9707 13.2427C24.917 13.4595 24.7922 13.6521 24.6163 13.7898C24.4404 13.9274 24.2234 14.0022 24 14.0022C23.7766 14.0022 23.5597 13.9274 23.3837 13.7898C23.2078 13.6521 23.0831 13.4595 23.0293 13.2427L22.6853 11.8613C22.5315 11.2459 22.2133 10.6839 21.7647 10.2353C21.3161 9.78674 20.7541 9.46852 20.1387 9.31467L18.7573 8.97067C18.5405 8.91696 18.3479 8.79219 18.2102 8.61627C18.0726 8.44034 17.9978 8.22339 17.9978 8C17.9978 7.77661 18.0726 7.55966 18.2102 7.38373C18.3479 7.20781 18.5405 7.08304 18.7573 7.02933L20.1387 6.68533C20.7541 6.53148 21.3161 6.21326 21.7647 5.7647C22.2133 5.31614 22.5315 4.75409 22.6853 4.13867L23.0293 2.75733C23.0835 2.54091 23.2084 2.34881 23.3843 2.21158C23.5602 2.07435 23.7769 1.99988 24 2ZM22 20C22.21 19.9999 22.4148 20.0659 22.5852 20.1887C22.7556 20.3114 22.883 20.4847 22.9493 20.684L23.4747 22.2613C23.6747 22.8573 24.1413 23.3267 24.7387 23.5253L26.316 24.052C26.5146 24.1187 26.6873 24.2461 26.8096 24.4162C26.9319 24.5863 26.9977 24.7905 26.9977 25C26.9977 25.2095 26.9319 25.4137 26.8096 25.5838C26.6873 25.7539 26.5146 25.8813 26.316 25.948L24.7387 26.4747C24.4444 26.5729 24.177 26.7382 23.9576 26.9576C23.7382 27.177 23.5729 27.4444 23.4747 27.7387L22.948 29.316C22.8813 29.5146 22.7539 29.6873 22.5838 29.8096C22.4137 29.9319 22.2095 29.9977 22 29.9977C21.7905 29.9977 21.5863 29.9319 21.4162 29.8096C21.2461 29.6873 21.1187 29.5146 21.052 29.316L20.5253 27.7387C20.4271 27.4444 20.2618 27.177 20.0424 26.9576C19.823 26.7382 19.5556 26.5729 19.2613 26.4747L17.684 25.948C17.4854 25.8813 17.3127 25.7539 17.1904 25.5838C17.0681 25.4137 17.0023 25.2095 17.0023 25C17.0023 24.7905 17.0681 24.5863 17.1904 24.4162C17.3127 24.2461 17.4854 24.1187 17.684 24.052L19.2613 23.5253C19.5556 23.4271 19.823 23.2618 20.0424 23.0424C20.2618 22.823 20.4271 22.5556 20.5253 22.2613L21.052 20.684C21.1183 20.485 21.2455 20.3118 21.4157 20.189C21.5858 20.0663 21.7902 20.0002 22 20Z" fill="#0063DA"/>
</svg>
